<svg width="814" height="221" viewBox="0 0 814 221" fill="none" xmlns="http://www.w3.org/2000/svg">
<path d="M498.865 47H549.065C559.998 47 568.931 47.9333 575.865 49.8C582.931 51.5333 588.398 54.7333 592.265 59.4C596.265 63.9333 599.065 70.2667 600.665 78.4C602.265 86.5333 603.065 96.9333 603.065 109.6C603.065 122.133 602.265 132.467 600.665 140.6C599.065 148.733 596.265 155.133 592.265 159.8C588.398 164.333 582.931 167.533 575.865 169.4C568.931 171.133 559.998 172 549.065 172H498.865V47ZM528.665 70.8V148.2H555.465C561.331 148.2 565.398 147.267 567.665 145.4C569.931 143.4 571.065 139.8 571.065 134.6V84.4C571.065 79.2 569.931 75.6667 567.665 73.8C565.398 71.8 561.331 70.8 555.465 70.8H528.665Z" fill="#00A1DB" fill-opacity="0.3"/>
<path d="M160.604 124V172H130.804V47H205.804L202.204 71.6H160.604V101.6H197.804V124H160.604Z" fill="#00A1DB" fill-opacity="0.3"/>
<path d="M643.34 120.6V147.4H694.54V172H613.54V47H694.74L690.94 71.6H643.34V98.4H687.14V120.6H643.34Z" fill="#00A1DB" fill-opacity="0.3"/>
<path d="M371.098 169.8C366.031 171.667 360.698 173 355.098 173.8C349.498 174.6 342.964 175 335.498 175C325.631 175 317.431 173.933 310.898 171.8C304.498 169.667 299.431 166.133 295.698 161.2C291.964 156.267 289.298 149.6 287.698 141.2C286.098 132.8 285.298 122.267 285.298 109.6C285.298 96.8 286.098 86.2 287.698 77.8C289.431 69.2667 292.298 62.5333 296.298 57.6C300.298 52.6667 305.698 49.2 312.498 47.2C319.298 45.0667 327.964 44 338.498 44C341.831 44 345.498 44.2 349.498 44.6C353.498 45 357.298 45.5333 360.898 46.2C364.631 46.8667 367.564 47.6667 369.698 48.6L365.898 72.6C362.964 71.8 359.698 71.1333 356.098 70.6C352.631 70.0667 349.231 69.6667 345.898 69.4C342.564 69 339.831 68.8 337.698 68.8C330.231 68.8 324.964 69.7333 321.898 71.6C318.831 73.4667 317.298 77.4 317.298 83.4V147.6C320.364 148.267 323.564 148.8 326.898 149.2C330.364 149.6 333.764 149.8 337.098 149.8C342.698 149.8 348.231 149.4 353.698 148.6C359.164 147.667 364.098 146.467 368.498 145L371.098 169.8Z" fill="#00A1DB" fill-opacity="0.3"/>
<path d="M212.566 114.2C212.566 110.867 213.499 108.867 215.366 108.2C217.233 107.4 219.966 107 223.566 107H270.166V119.8C270.166 123.133 269.233 125.2 267.366 126C265.5 126.667 262.766 127 259.166 127H212.566V114.2Z" fill="#00A1DB" fill-opacity="0.3"/>
<path d="M385.274 109.6C385.274 96.5333 386.074 85.8 387.674 77.4C389.407 68.8667 392.341 62.2 396.474 57.4C400.607 52.4667 406.207 49 413.274 47C420.474 45 429.541 44 440.474 44C451.274 44 460.274 45 467.474 47C474.674 49 480.274 52.4667 484.274 57.4C488.407 62.2 491.341 68.8667 493.074 77.4C494.807 85.8 495.674 96.5333 495.674 109.6C495.674 122.667 494.807 133.4 493.074 141.8C491.341 150.2 488.407 156.867 484.274 161.8C480.274 166.6 474.674 170 467.474 172C460.274 174 451.274 175 440.474 175C429.541 175 420.474 174 413.274 172C406.207 170 400.607 166.6 396.474 161.8C392.341 156.867 389.407 150.2 387.674 141.8C386.074 133.4 385.274 122.667 385.274 109.6ZM417.274 149.6H447.074C453.341 149.6 457.674 148.667 460.074 146.8C462.474 144.933 463.674 141.667 463.674 137V69.4H433.474C427.341 69.4 423.074 70.3333 420.674 72.2C418.407 74.0667 417.274 77.3333 417.274 82V149.6Z" fill="#00A1DB" fill-opacity="0.3"/>
</svg>
